<svg width="25" height="24" viewBox="0 0 25 24" fill="none" xmlns="http://www.w3.org/2000/svg">
<path d="M19.6471 18.3524C19.7024 18.4039 19.7467 18.466 19.7775 18.535C19.8082 18.604 19.8248 18.6785 19.8261 18.754C19.8274 18.8295 19.8135 18.9045 19.7852 18.9746C19.7569 19.0446 19.7148 19.1082 19.6614 19.1617C19.608 19.2151 19.5444 19.2572 19.4743 19.2855C19.4043 19.3138 19.3293 19.3277 19.2537 19.3263C19.1782 19.325 19.1037 19.3085 19.0347 19.2777C18.9657 19.247 18.9036 19.2027 18.8521 19.1474L12.4996 12.7958L6.14714 19.1474C6.04051 19.2467 5.89947 19.3008 5.75375 19.2983C5.60802 19.2957 5.46898 19.2367 5.36592 19.1336C5.26286 19.0305 5.20383 18.8915 5.20126 18.7458C5.19869 18.6001 5.25278 18.459 5.35214 18.3524L11.7037 11.9999L5.35214 5.64739C5.25278 5.54075 5.19869 5.39972 5.20126 5.25399C5.20383 5.10827 5.26286 4.96923 5.36592 4.86617C5.46898 4.76311 5.60802 4.70407 5.75375 4.7015C5.89947 4.69893 6.04051 4.75302 6.14714 4.85238L12.4996 11.2039L18.8521 4.85238C18.9588 4.75302 19.0998 4.69893 19.2455 4.7015C19.3913 4.70407 19.5303 4.76311 19.6334 4.86617C19.7364 4.96923 19.7955 5.10827 19.798 5.25399C19.8006 5.39972 19.7465 5.54075 19.6471 5.64739L13.2956 11.9999L19.6471 18.3524Z" fill="#282828"/>
</svg>
