<svg width="18" height="19" viewBox="0 0 18 19" fill="none" xmlns="http://www.w3.org/2000/svg">
<path fill-rule="evenodd" clip-rule="evenodd" d="M13.9996 5.83331C13.9996 8.59474 11.761 10.8333 8.99959 10.8333C6.23817 10.8333 3.99959 8.59474 3.99959 5.83331C3.99959 3.07189 6.23817 0.833313 8.99959 0.833313C11.761 0.833313 13.9996 3.07189 13.9996 5.83331ZM12.3329 5.83331C12.3329 7.67426 10.8405 9.16665 8.99959 9.16665C7.15864 9.16665 5.66626 7.67426 5.66626 5.83331C5.66626 3.99236 7.15864 2.49998 8.99959 2.49998C10.8405 2.49998 12.3329 3.99236 12.3329 5.83331Z" fill="black" fill-opacity="0.32"/>
<path fill-rule="evenodd" clip-rule="evenodd" d="M8.99965 11.6666C6.55372 11.6666 4.79018 12.174 3.52513 12.9348C2.25504 13.6985 1.54165 14.6854 1.1477 15.5484C0.815633 16.2759 0.96677 17.0173 1.40796 17.5455C1.82852 18.0489 2.48242 18.3333 3.1663 18.3333H14.8329C15.5168 18.3333 16.1707 18.0489 16.5913 17.5455C17.0324 17.0173 17.1836 16.2759 16.8516 15.5484C16.4576 14.6854 15.7443 13.6986 14.4742 12.9348C13.2091 12.174 11.4456 11.6666 8.99965 11.6666ZM2.66389 16.2405C2.93735 15.6414 3.43967 14.931 4.38405 14.3631C5.33347 13.7921 6.78316 13.3333 8.99965 13.3333C11.2162 13.3333 12.6658 13.7921 13.6152 14.3631C14.5596 14.931 15.0619 15.6414 15.3354 16.2405C15.3676 16.3112 15.3662 16.3538 15.363 16.3755C15.3593 16.4003 15.3471 16.4351 15.3121 16.477C15.237 16.5669 15.0695 16.6666 14.8329 16.6666H3.1663C2.92969 16.6666 2.76223 16.5669 2.68709 16.477C2.65211 16.4351 2.63995 16.4003 2.63624 16.3755C2.633 16.3538 2.63159 16.3112 2.66389 16.2405Z" fill="black" fill-opacity="0.32"/>
</svg>
